<svg xmlns="http://www.w3.org/2000/svg" xmlns:xlink="http://www.w3.org/1999/xlink" xmlns:s="https://github.com/nturley/netlistsvg" width="1174" height="1338">
  <style>svg {
    stroke:#000;
    fill:none;
  }
  text {
    fill:#000;
    stroke:none;
    font-size:10px;
    font-weight: bold;
    font-family: "Courier New", monospace;
  }
  .nodelabel {
    text-anchor: middle;
  }
  .inputPortLabel {
    text-anchor: end;
  }
  .splitjoinBody {
    fill:#000;
  }</style>
  <g s:type="dff" transform="translate(1037,22)" s:width="30" s:height="40" id="cell_$procdff$729">
    <s:alias val="$dff"/>
    <s:alias val="$_DFF_"/>
    <s:alias val="$_DFF_P_"/>
    <rect width="30" height="40" x="0" y="0" class="cell_$procdff$729"/>
    <path d="M0,35 L5,30 L0,25" class="cell_$procdff$729"/>
    <g s:x="30" s:y="10" s:pid="Q"/>
    <g s:x="0" s:y="30" s:pid="CLK"/>
    <g s:x="0" s:y="30" s:pid="C"/>
    <g s:x="0" s:y="10" s:pid="D"/>
  </g>
  <g s:type="generic" transform="translate(421.5,431)" s:width="30" s:height="40" id="cell_$procdff$732">
    <text x="15" y="-4" class="nodelabel cell_$procdff$732" s:attribute="ref">$adff</text>
    <rect width="30" height="60" s:generic="body" class="cell_$procdff$732"/>
    <g transform="translate(0,10)" s:x="0" s:y="10" s:pid="in0" id="port_$procdff$732~ARST">
      <text x="-3" y="-4" class="inputPortLabel cell_$procdff$732">ARST</text>
    </g>
    <g transform="translate(0,30)" s:x="0" s:y="10" s:pid="in0" id="port_$procdff$732~CLK">
      <text x="-3" y="-4" class="inputPortLabel cell_$procdff$732">CLK</text>
    </g>
    <g transform="translate(0,50)" s:x="0" s:y="10" s:pid="in0" id="port_$procdff$732~D">
      <text x="-3" y="-4" class="inputPortLabel cell_$procdff$732">D</text>
    </g>
    <g transform="translate(30,10)" s:x="30" s:y="10" s:pid="out0" id="port_$procdff$732~Q">
      <text x="5" y="-4" style="fill:#000; stroke:none" class="cell_$procdff$732">Q</text>
    </g>
  </g>
  <g s:type="mux" transform="translate(714,107.5)" s:width="20" s:height="40" id="cell_$ternary$core.v:285$229">
    <s:alias val="$pmux"/>
    <s:alias val="$mux"/>
    <s:alias val="$_MUX_"/>
    <path d="M0,0 L20,10 L20,30 L0,40 Z" class="cell_$ternary$core.v:285$229"/>
    <g s:x="0" s:y="10" s:pid="A"/>
    <g s:x="0" s:y="30" s:pid="B"/>
    <g s:x="10" s:y="35" s:pid="S"/>
    <g s:x="20" s:y="20" s:pid="Y"/>
  </g>
  <g s:type="mux" transform="translate(806.6666666666666,608)" s:width="20" s:height="40" id="cell_$ternary$core.v:301$230">
    <s:alias val="$pmux"/>
    <s:alias val="$mux"/>
    <s:alias val="$_MUX_"/>
    <path d="M0,0 L20,10 L20,30 L0,40 Z" class="cell_$ternary$core.v:301$230"/>
    <g s:x="0" s:y="10" s:pid="A"/>
    <g s:x="0" s:y="30" s:pid="B"/>
    <g s:x="10" s:y="35" s:pid="S"/>
    <g s:x="20" s:y="20" s:pid="Y"/>
  </g>
  <g s:type="mux" transform="translate(1040.3333333333335,1017.5)" s:width="20" s:height="40" id="cell_$ternary$core.v:314$227">
    <s:alias val="$pmux"/>
    <s:alias val="$mux"/>
    <s:alias val="$_MUX_"/>
    <path d="M0,0 L20,10 L20,30 L0,40 Z" class="cell_$ternary$core.v:314$227"/>
    <g s:x="0" s:y="10" s:pid="A"/>
    <g s:x="0" s:y="30" s:pid="B"/>
    <g s:x="10" s:y="35" s:pid="S"/>
    <g s:x="20" s:y="20" s:pid="Y"/>
  </g>
  <g s:type="mux" transform="translate(1040.3333333333335,649.5)" s:width="20" s:height="40" id="cell_$ternary$core.v:315$228">
    <s:alias val="$pmux"/>
    <s:alias val="$mux"/>
    <s:alias val="$_MUX_"/>
    <path d="M0,0 L20,10 L20,30 L0,40 Z" class="cell_$ternary$core.v:315$228"/>
    <g s:x="0" s:y="10" s:pid="A"/>
    <g s:x="0" s:y="30" s:pid="B"/>
    <g s:x="10" s:y="35" s:pid="S"/>
    <g s:x="20" s:y="20" s:pid="Y"/>
  </g>
  <g s:type="mux" transform="translate(1040.3333333333335,255.5)" s:width="20" s:height="40" id="cell_$ternary$core.v:320$231">
    <s:alias val="$pmux"/>
    <s:alias val="$mux"/>
    <s:alias val="$_MUX_"/>
    <path d="M0,0 L20,10 L20,30 L0,40 Z" class="cell_$ternary$core.v:320$231"/>
    <g s:x="0" s:y="10" s:pid="A"/>
    <g s:x="0" s:y="30" s:pid="B"/>
    <g s:x="10" s:y="35" s:pid="S"/>
    <g s:x="20" s:y="20" s:pid="Y"/>
  </g>
  <g s:type="generic" transform="translate(935.8571428571429,275)" s:width="30" s:height="40" id="cell_genblk2.isp">
    <text x="15" y="-4" class="nodelabel cell_genblk2.isp" s:attribute="ref">$paramod$3c9738dd1d1d012d022f29e5e0c835dd2d92c94d\stack</text>
    <rect width="30" height="100" s:generic="body" class="cell_genblk2.isp"/>
    <g transform="translate(0,10)" s:x="0" s:y="10" s:pid="in0" id="port_genblk2.isp~clk">
      <text x="-3" y="-4" class="inputPortLabel cell_genblk2.isp">clk</text>
    </g>
    <g transform="translate(0,30)" s:x="0" s:y="10" s:pid="in0" id="port_genblk2.isp~in">
      <text x="-3" y="-4" class="inputPortLabel cell_genblk2.isp">in</text>
    </g>
    <g transform="translate(0,50)" s:x="0" s:y="10" s:pid="in0" id="port_genblk2.isp~pop">
      <text x="-3" y="-4" class="inputPortLabel cell_genblk2.isp">pop</text>
    </g>
    <g transform="translate(0,70)" s:x="0" s:y="10" s:pid="in0" id="port_genblk2.isp~push">
      <text x="-3" y="-4" class="inputPortLabel cell_genblk2.isp">push</text>
    </g>
    <g transform="translate(0,90)" s:x="0" s:y="10" s:pid="in0" id="port_genblk2.isp~rst">
      <text x="-3" y="-4" class="inputPortLabel cell_genblk2.isp">rst</text>
    </g>
    <g transform="translate(30,10)" s:x="30" s:y="10" s:pid="out0" id="port_genblk2.isp~out">
      <text x="5" y="-4" style="fill:#000; stroke:none" class="cell_genblk2.isp">out</text>
    </g>
  </g>
  <g s:type="generic" transform="translate(936.1666666666666,649)" s:width="30" s:height="40" id="cell_genblk3.ra">
    <text x="15" y="-4" class="nodelabel cell_genblk3.ra" s:attribute="ref">$paramod$79032bbad959c847d806b8a3048d1251d0d01c85\rel_addr</text>
    <rect width="30" height="100" s:generic="body" class="cell_genblk3.ra"/>
    <g transform="translate(0,10)" s:x="0" s:y="10" s:pid="in0" id="port_genblk3.ra~addr">
      <text x="-3" y="-4" class="inputPortLabel cell_genblk3.ra">addr</text>
    </g>
    <g transform="translate(0,30)" s:x="0" s:y="10" s:pid="in0" id="port_genblk3.ra~in">
      <text x="-3" y="-4" class="inputPortLabel cell_genblk3.ra">in</text>
    </g>
    <g transform="translate(0,50)" s:x="0" s:y="10" s:pid="in0" id="port_genblk3.ra~inv">
      <text x="-3" y="-4" class="inputPortLabel cell_genblk3.ra">inv</text>
    </g>
    <g transform="translate(0,70)" s:x="0" s:y="10" s:pid="in0" id="port_genblk3.ra~ldi">
      <text x="-3" y="-4" class="inputPortLabel cell_genblk3.ra">ldi</text>
    </g>
    <g transform="translate(0,90)" s:x="0" s:y="10" s:pid="in0" id="port_genblk3.ra~srf">
      <text x="-3" y="-4" class="inputPortLabel cell_genblk3.ra">srf</text>
    </g>
    <g transform="translate(30,10)" s:x="30" s:y="10" s:pid="out0" id="port_genblk3.ra~out">
      <text x="5" y="-4" style="fill:#000; stroke:none" class="cell_genblk3.ra">out</text>
    </g>
  </g>
  <g s:type="generic" transform="translate(430,751.5)" s:width="30" s:height="40" id="cell_id">
    <text x="15" y="-4" class="nodelabel cell_id" s:attribute="ref">$paramod$fb5359c193480049b3f885b84488a7a8ead0ed4b\instr_dec</text>
    <rect width="30" height="220" s:generic="body" class="cell_id"/>
    <g transform="translate(0,10)" s:x="0" s:y="10" s:pid="in0" id="port_id~clk">
      <text x="-3" y="-4" class="inputPortLabel cell_id">clk</text>
    </g>
    <g transform="translate(0,30)" s:x="0" s:y="10" s:pid="in0" id="port_id~io_in">
      <text x="-3" y="-4" class="inputPortLabel cell_id">io_in</text>
    </g>
    <g transform="translate(0,50)" s:x="0" s:y="10" s:pid="in0" id="port_id~mem_data_in">
      <text x="-3" y="-4" class="inputPortLabel cell_id">mem_data_in</text>
    </g>
    <g transform="translate(0,70)" s:x="0" s:y="10" s:pid="in0" id="port_id~opcode">
      <text x="-3" y="-4" class="inputPortLabel cell_id">opcode</text>
    </g>
    <g transform="translate(0,90)" s:x="0" s:y="10" s:pid="in0" id="port_id~operand">
      <text x="-3" y="-4" class="inputPortLabel cell_id">operand</text>
    </g>
    <g transform="translate(0,110)" s:x="0" s:y="10" s:pid="in0" id="port_id~rst">
      <text x="-3" y="-4" class="inputPortLabel cell_id">rst</text>
    </g>
    <g transform="translate(30,10)" s:x="30" s:y="10" s:pid="out0" id="port_id~dsp_pop">
      <text x="5" y="-4" style="fill:#000; stroke:none" class="cell_id">dsp_pop</text>
    </g>
    <g transform="translate(30,30)" s:x="30" s:y="10" s:pid="out0" id="port_id~dsp_push">
      <text x="5" y="-4" style="fill:#000; stroke:none" class="cell_id">dsp_push</text>
    </g>
    <g transform="translate(30,50)" s:x="30" s:y="10" s:pid="out0" id="port_id~inv">
      <text x="5" y="-4" style="fill:#000; stroke:none" class="cell_id">inv</text>
    </g>
    <g transform="translate(30,70)" s:x="30" s:y="10" s:pid="out0" id="port_id~ldi">
      <text x="5" y="-4" style="fill:#000; stroke:none" class="cell_id">ldi</text>
    </g>
    <g transform="translate(30,90)" s:x="30" s:y="10" s:pid="out0" id="port_id~mem_addr">
      <text x="5" y="-4" style="fill:#000; stroke:none" class="cell_id">mem_addr</text>
    </g>
    <g transform="translate(30,110)" s:x="30" s:y="10" s:pid="out0" id="port_id~mem_wr">
      <text x="5" y="-4" style="fill:#000; stroke:none" class="cell_id">mem_wr</text>
    </g>
    <g transform="translate(30,130)" s:x="30" s:y="10" s:pid="out0" id="port_id~out_en">
      <text x="5" y="-4" style="fill:#000; stroke:none" class="cell_id">out_en</text>
    </g>
    <g transform="translate(30,150)" s:x="30" s:y="10" s:pid="out0" id="port_id~req_in">
      <text x="5" y="-4" style="fill:#000; stroke:none" class="cell_id">req_in</text>
    </g>
    <g transform="translate(30,170)" s:x="30" s:y="10" s:pid="out0" id="port_id~srf">
      <text x="5" y="-4" style="fill:#000; stroke:none" class="cell_id">srf</text>
    </g>
    <g transform="translate(30,190)" s:x="30" s:y="10" s:pid="out0" id="port_id~ula_data">
      <text x="5" y="-4" style="fill:#000; stroke:none" class="cell_id">ula_data</text>
    </g>
    <g transform="translate(30,210)" s:x="30" s:y="10" s:pid="out0" id="port_id~ula_op">
      <text x="5" y="-4" style="fill:#000; stroke:none" class="cell_id">ula_op</text>
    </g>
  </g>
  <g s:type="generic" transform="translate(803,97)" s:width="30" s:height="40" id="cell_pc">
    <text x="15" y="-4" class="nodelabel cell_pc" s:attribute="ref">$paramod\pc\NBITS=s32'00000000000000000000000000001001</text>
    <rect width="30" height="80" s:generic="body" class="cell_pc"/>
    <g transform="translate(0,10)" s:x="0" s:y="10" s:pid="in0" id="port_pc~clk">
      <text x="-3" y="-4" class="inputPortLabel cell_pc">clk</text>
    </g>
    <g transform="translate(0,30)" s:x="0" s:y="10" s:pid="in0" id="port_pc~data">
      <text x="-3" y="-4" class="inputPortLabel cell_pc">data</text>
    </g>
    <g transform="translate(0,50)" s:x="0" s:y="10" s:pid="in0" id="port_pc~load">
      <text x="-3" y="-4" class="inputPortLabel cell_pc">load</text>
    </g>
    <g transform="translate(0,70)" s:x="0" s:y="10" s:pid="in0" id="port_pc~rst">
      <text x="-3" y="-4" class="inputPortLabel cell_pc">rst</text>
    </g>
    <g transform="translate(30,10)" s:x="30" s:y="10" s:pid="out0" id="port_pc~addr">
      <text x="5" y="-4" style="fill:#000; stroke:none" class="cell_pc">addr</text>
    </g>
  </g>
  <g s:type="generic" transform="translate(211,210)" s:width="30" s:height="40" id="cell_pf">
    <text x="15" y="-4" class="nodelabel cell_pf" s:attribute="ref">$paramod$44081e8eac7aeb4192f0f4820f8b3b91527e5928\prefetch</text>
    <rect width="30" height="120" s:generic="body" class="cell_pf"/>
    <g transform="translate(0,10)" s:x="0" s:y="10" s:pid="in0" id="port_pf~acc_is_zero">
      <text x="-3" y="-4" class="inputPortLabel cell_pf">acc_is_zero</text>
    </g>
    <g transform="translate(0,30)" s:x="0" s:y="10" s:pid="in0" id="port_pf~addr">
      <text x="-3" y="-4" class="inputPortLabel cell_pf">addr</text>
    </g>
    <g transform="translate(0,50)" s:x="0" s:y="10" s:pid="in0" id="port_pf~clk">
      <text x="-3" y="-4" class="inputPortLabel cell_pf">clk</text>
    </g>
    <g transform="translate(0,70)" s:x="0" s:y="10" s:pid="in0" id="port_pf~instr">
      <text x="-3" y="-4" class="inputPortLabel cell_pf">instr</text>
    </g>
    <g transform="translate(0,90)" s:x="0" s:y="10" s:pid="in0" id="port_pf~itr">
      <text x="-3" y="-4" class="inputPortLabel cell_pf">itr</text>
    </g>
    <g transform="translate(0,110)" s:x="0" s:y="10" s:pid="in0" id="port_pf~rst">
      <text x="-3" y="-4" class="inputPortLabel cell_pf">rst</text>
    </g>
    <g transform="translate(30,10)" s:x="30" s:y="10" s:pid="out0" id="port_pf~instr_addr">
      <text x="5" y="-4" style="fill:#000; stroke:none" class="cell_pf">instr_addr</text>
    </g>
    <g transform="translate(30,30)" s:x="30" s:y="10" s:pid="out0" id="port_pf~isp_pop">
      <text x="5" y="-4" style="fill:#000; stroke:none" class="cell_pf">isp_pop</text>
    </g>
    <g transform="translate(30,50)" s:x="30" s:y="10" s:pid="out0" id="port_pf~isp_push">
      <text x="5" y="-4" style="fill:#000; stroke:none" class="cell_pf">isp_push</text>
    </g>
    <g transform="translate(30,70)" s:x="30" s:y="10" s:pid="out0" id="port_pf~opcode">
      <text x="5" y="-4" style="fill:#000; stroke:none" class="cell_pf">opcode</text>
    </g>
    <g transform="translate(30,90)" s:x="30" s:y="10" s:pid="out0" id="port_pf~operand">
      <text x="5" y="-4" style="fill:#000; stroke:none" class="cell_pf">operand</text>
    </g>
    <g transform="translate(30,110)" s:x="30" s:y="10" s:pid="out0" id="port_pf~pc_l">
      <text x="5" y="-4" style="fill:#000; stroke:none" class="cell_pf">pc_l</text>
    </g>
  </g>
  <g s:type="generic" transform="translate(934,1017)" s:width="30" s:height="40" id="cell_sp">
    <text x="15" y="-4" class="nodelabel cell_sp" s:attribute="ref">$paramod$31b12ded769aeb51595e36d89cdf24607e25af07\stack_pointer</text>
    <rect width="30" height="80" s:generic="body" class="cell_sp"/>
    <g transform="translate(0,10)" s:x="0" s:y="10" s:pid="in0" id="port_sp~clk">
      <text x="-3" y="-4" class="inputPortLabel cell_sp">clk</text>
    </g>
    <g transform="translate(0,30)" s:x="0" s:y="10" s:pid="in0" id="port_sp~pop">
      <text x="-3" y="-4" class="inputPortLabel cell_sp">pop</text>
    </g>
    <g transform="translate(0,50)" s:x="0" s:y="10" s:pid="in0" id="port_sp~push">
      <text x="-3" y="-4" class="inputPortLabel cell_sp">push</text>
    </g>
    <g transform="translate(0,70)" s:x="0" s:y="10" s:pid="in0" id="port_sp~rst">
      <text x="-3" y="-4" class="inputPortLabel cell_sp">rst</text>
    </g>
    <g transform="translate(30,10)" s:x="30" s:y="10" s:pid="out0" id="port_sp~addr_r">
      <text x="5" y="-4" style="fill:#000; stroke:none" class="cell_sp">addr_r</text>
    </g>
    <g transform="translate(30,30)" s:x="30" s:y="10" s:pid="out0" id="port_sp~addr_w">
      <text x="5" y="-4" style="fill:#000; stroke:none" class="cell_sp">addr_w</text>
    </g>
  </g>
  <g s:type="generic" transform="translate(629,524)" s:width="30" s:height="40" id="cell_ula">
    <text x="15" y="-4" class="nodelabel cell_ula" s:attribute="ref">$paramod$415424354b6f3379887aa0254a234e27b61233f3\ula</text>
    <rect width="30" height="60" s:generic="body" class="cell_ula"/>
    <g transform="translate(0,10)" s:x="0" s:y="10" s:pid="in0" id="port_ula~in1">
      <text x="-3" y="-4" class="inputPortLabel cell_ula">in1</text>
    </g>
    <g transform="translate(0,30)" s:x="0" s:y="10" s:pid="in0" id="port_ula~in2">
      <text x="-3" y="-4" class="inputPortLabel cell_ula">in2</text>
    </g>
    <g transform="translate(0,50)" s:x="0" s:y="10" s:pid="in0" id="port_ula~op">
      <text x="-3" y="-4" class="inputPortLabel cell_ula">op</text>
    </g>
    <g transform="translate(30,10)" s:x="30" s:y="10" s:pid="out0" id="port_ula~out">
      <text x="5" y="-4" style="fill:#000; stroke:none" class="cell_ula">out</text>
    </g>
  </g>
  <g s:type="inputExt" transform="translate(54,225.5)" s:width="30" s:height="20" id="cell_clk">
    <text x="15" y="-4" class="nodelabel cell_clk" s:attribute="ref">clk</text>
    <s:alias val="$_inputExt_"/>
    <path d="M0,0 L0,20 L15,20 L30,10 L15,0 Z" class="cell_clk"/>
    <g s:x="28" s:y="10" s:pid="Y"/>
  </g>
  <g s:type="inputExt" transform="translate(54,355.5)" s:width="30" s:height="20" id="cell_rst">
    <text x="15" y="-4" class="nodelabel cell_rst" s:attribute="ref">rst</text>
    <s:alias val="$_inputExt_"/>
    <path d="M0,0 L0,20 L15,20 L30,10 L15,0 Z" class="cell_rst"/>
    <g s:x="28" s:y="10" s:pid="Y"/>
  </g>
  <g s:type="inputExt" transform="translate(54,160.5)" s:width="30" s:height="20" id="cell_instr">
    <text x="15" y="-4" class="nodelabel cell_instr" s:attribute="ref">instr</text>
    <s:alias val="$_inputExt_"/>
    <path d="M0,0 L0,20 L15,20 L30,10 L15,0 Z" class="cell_instr"/>
    <g s:x="28" s:y="10" s:pid="Y"/>
  </g>
  <g s:type="outputExt" transform="translate(1102,265.5)" s:width="30" s:height="20" id="cell_instr_addr">
    <text x="15" y="-4" class="nodelabel cell_instr_addr" s:attribute="ref">instr_addr</text>
    <s:alias val="$_outputExt_"/>
    <path d="M30,0 L30,20 L15,20 L0,10 L15,0 Z" class="cell_instr_addr"/>
    <g s:x="0" s:y="10" s:pid="A"/>
  </g>
  <g s:type="outputExt" transform="translate(1102,1111)" s:width="30" s:height="20" id="cell_mem_wr">
    <text x="15" y="-4" class="nodelabel cell_mem_wr" s:attribute="ref">mem_wr</text>
    <s:alias val="$_outputExt_"/>
    <path d="M30,0 L30,20 L15,20 L0,10 L15,0 Z" class="cell_mem_wr"/>
    <g s:x="0" s:y="10" s:pid="A"/>
  </g>
  <g s:type="outputExt" transform="translate(1102,1027.5)" s:width="30" s:height="20" id="cell_mem_addr_w">
    <text x="15" y="-4" class="nodelabel cell_mem_addr_w" s:attribute="ref">mem_addr_w</text>
    <s:alias val="$_outputExt_"/>
    <path d="M30,0 L30,20 L15,20 L0,10 L15,0 Z" class="cell_mem_addr_w"/>
    <g s:x="0" s:y="10" s:pid="A"/>
  </g>
  <g s:type="outputExt" transform="translate(1102,659.5)" s:width="30" s:height="20" id="cell_mem_addr_r">
    <text x="15" y="-4" class="nodelabel cell_mem_addr_r" s:attribute="ref">mem_addr_r</text>
    <s:alias val="$_outputExt_"/>
    <path d="M30,0 L30,20 L15,20 L0,10 L15,0 Z" class="cell_mem_addr_r"/>
    <g s:x="0" s:y="10" s:pid="A"/>
  </g>
  <g s:type="inputExt" transform="translate(211,792)" s:width="30" s:height="20" id="cell_mem_data_in">
    <text x="15" y="-4" class="nodelabel cell_mem_data_in" s:attribute="ref">mem_data_in</text>
    <s:alias val="$_inputExt_"/>
    <path d="M0,0 L0,20 L15,20 L30,10 L15,0 Z" class="cell_mem_data_in"/>
    <g s:x="28" s:y="10" s:pid="Y"/>
  </g>
  <g s:type="outputExt" transform="translate(1102,524.5)" s:width="30" s:height="20" id="cell_data_out">
    <text x="15" y="-4" class="nodelabel cell_data_out" s:attribute="ref">data_out</text>
    <s:alias val="$_outputExt_"/>
    <path d="M30,0 L30,20 L15,20 L0,10 L15,0 Z" class="cell_data_out"/>
    <g s:x="0" s:y="10" s:pid="A"/>
  </g>
  <g s:type="inputExt" transform="translate(211,727)" s:width="30" s:height="20" id="cell_io_in">
    <text x="15" y="-4" class="nodelabel cell_io_in" s:attribute="ref">io_in</text>
    <s:alias val="$_inputExt_"/>
    <path d="M0,0 L0,20 L15,20 L30,10 L15,0 Z" class="cell_io_in"/>
    <g s:x="28" s:y="10" s:pid="Y"/>
  </g>
  <g s:type="outputExt" transform="translate(1102,22)" s:width="30" s:height="20" id="cell_addr_in">
    <text x="15" y="-4" class="nodelabel cell_addr_in" s:attribute="ref">addr_in</text>
    <s:alias val="$_outputExt_"/>
    <path d="M30,0 L30,20 L15,20 L0,10 L15,0 Z" class="cell_addr_in"/>
    <g s:x="0" s:y="10" s:pid="A"/>
  </g>
  <g s:type="outputExt" transform="translate(1102,1306)" s:width="30" s:height="20" id="cell_addr_out">
    <text x="15" y="-4" class="nodelabel cell_addr_out" s:attribute="ref">addr_out</text>
    <s:alias val="$_outputExt_"/>
    <path d="M30,0 L30,20 L15,20 L0,10 L15,0 Z" class="cell_addr_out"/>
    <g s:x="0" s:y="10" s:pid="A"/>
  </g>
  <g s:type="outputExt" transform="translate(1102,1241)" s:width="30" s:height="20" id="cell_req_in">
    <text x="15" y="-4" class="nodelabel cell_req_in" s:attribute="ref">req_in</text>
    <s:alias val="$_outputExt_"/>
    <path d="M30,0 L30,20 L15,20 L0,10 L15,0 Z" class="cell_req_in"/>
    <g s:x="0" s:y="10" s:pid="A"/>
  </g>
  <g s:type="outputExt" transform="translate(1102,1176)" s:width="30" s:height="20" id="cell_out_en">
    <text x="15" y="-4" class="nodelabel cell_out_en" s:attribute="ref">out_en</text>
    <s:alias val="$_outputExt_"/>
    <path d="M30,0 L30,20 L15,20 L0,10 L15,0 Z" class="cell_out_en"/>
    <g s:x="0" s:y="10" s:pid="A"/>
  </g>
  <g s:type="inputExt" transform="translate(54,290.5)" s:width="30" s:height="20" id="cell_itr">
    <text x="15" y="-4" class="nodelabel cell_itr" s:attribute="ref">itr</text>
    <s:alias val="$_inputExt_"/>
    <path d="M0,0 L0,20 L15,20 L30,10 L15,0 Z" class="cell_itr"/>
    <g s:x="28" s:y="10" s:pid="Y"/>
  </g>
  <g s:type="constant" transform="translate(12,22)" s:width="30" s:height="20" id="cell_0">
    <text x="15" y="-4" class="nodelabel cell_0" s:attribute="ref">0</text>
    <s:alias val="$_constant_"/>
    <rect width="30" height="20" class="cell_0"/>
    <g s:x="30" s:y="10" s:pid="Y"/>
  </g>
  <g s:type="split" transform="translate(654,107)" s:width="5" s:height="40" id="cell_$split$,4,5,6,7,8,9,10,11,12,13,14,15,16,17,18,19,">
    <rect width="5" height="20" class="splitjoinBody" s:generic="body"/>
    <s:alias val="$_split_"/>
    <g s:x="0" s:y="20" s:pid="in"/>
    <g transform="translate(4,10)" s:x="4" s:y="10" s:pid="out0">
      <text x="5" y="-4">0:8</text>
    </g>
  </g>
  <g s:type="split" transform="translate(714,997.5)" s:width="5" s:height="40" id="cell_$split$,44,45,46,47,48,49,50,51,52,53,54,55,56,57,58,59,60,61,62,63,64,65,66,67,68,69,70,71,72,73,74,75,">
    <rect width="5" height="40" class="splitjoinBody" s:generic="body"/>
    <s:alias val="$_split_"/>
    <g s:x="0" s:y="20" s:pid="in"/>
    <g transform="translate(4,10)" s:x="4" s:y="10" s:pid="out0">
      <text x="5" y="-4">0:6</text>
    </g>
    <g transform="translate(4,30)" s:x="4" s:y="10" s:pid="out0">
      <text x="5" y="-4">0</text>
    </g>
  </g>
  <g s:type="split" transform="translate(714,627.5)" s:width="5" s:height="40" id="cell_$split$,76,77,78,79,80,81,82,83,84,85,86,87,88,89,90,91,92,93,94,95,96,97,98,99,100,101,102,103,104,105,106,107,">
    <rect width="5" height="40" class="splitjoinBody" s:generic="body"/>
    <s:alias val="$_split_"/>
    <g s:x="0" s:y="20" s:pid="in"/>
    <g transform="translate(4,10)" s:x="4" s:y="10" s:pid="out0">
      <text x="5" y="-4">0:6</text>
    </g>
    <g transform="translate(4,30)" s:x="4" s:y="10" s:pid="out0">
      <text x="5" y="-4">0</text>
    </g>
  </g>
  <line x1="82" x2="94" y1="235.5" y2="235.5" class="net_2"/>
  <line x1="94" x2="94" y1="235.5" y2="74" class="net_2"/>
  <line x1="94" x2="313" y1="74" y2="74" class="net_2"/>
  <line x1="313" x2="313" y1="74" y2="52" class="net_2"/>
  <circle cx="94" cy="235.5" r="2" style="fill:#000" class="net_2"/>
  <circle cx="313" cy="74" r="2" style="fill:#000" class="net_2"/>
  <line x1="313" x2="1037" y1="52" y2="52" class="net_2"/>
  <line x1="82" x2="94" y1="235.5" y2="235.5" class="net_2"/>
  <line x1="94" x2="94" y1="235.5" y2="461.5" class="net_2"/>
  <circle cx="94" cy="461.5" r="2" style="fill:#000" class="net_2"/>
  <line x1="94" x2="421.5" y1="461.5" y2="461.5" class="net_2"/>
  <line x1="82" x2="94" y1="235.5" y2="235.5" class="net_2"/>
  <line x1="94" x2="94" y1="235.5" y2="74" class="net_2"/>
  <line x1="94" x2="899" y1="74" y2="74" class="net_2"/>
  <line x1="899" x2="899" y1="74" y2="285.5" class="net_2"/>
  <line x1="899" x2="935.8571428571429" y1="285.5" y2="285.5" class="net_2"/>
  <line x1="82" x2="94" y1="235.5" y2="235.5" class="net_2"/>
  <line x1="94" x2="94" y1="235.5" y2="706" class="net_2"/>
  <line x1="94" x2="343" y1="706" y2="706" class="net_2"/>
  <line x1="343" x2="343" y1="706" y2="762" class="net_2"/>
  <circle cx="94" cy="706" r="2" style="fill:#000" class="net_2"/>
  <line x1="343" x2="430" y1="762" y2="762" class="net_2"/>
  <line x1="82" x2="94" y1="235.5" y2="235.5" class="net_2"/>
  <line x1="94" x2="94" y1="235.5" y2="74" class="net_2"/>
  <line x1="94" x2="768" y1="74" y2="74" class="net_2"/>
  <line x1="768" x2="768" y1="74" y2="107.5" class="net_2"/>
  <circle cx="768" cy="74" r="2" style="fill:#000" class="net_2"/>
  <line x1="768" x2="803" y1="107.5" y2="107.5" class="net_2"/>
  <line x1="82" x2="94" y1="235.5" y2="235.5" class="net_2"/>
  <line x1="94" x2="94" y1="235.5" y2="260.5" class="net_2"/>
  <circle cx="94" cy="260.5" r="2" style="fill:#000" class="net_2"/>
  <line x1="94" x2="211" y1="260.5" y2="260.5" class="net_2"/>
  <line x1="82" x2="94" y1="235.5" y2="235.5" class="net_2"/>
  <line x1="94" x2="94" y1="235.5" y2="984.5" class="net_2"/>
  <line x1="94" x2="869" y1="984.5" y2="984.5" class="net_2"/>
  <line x1="869" x2="869" y1="984.5" y2="1027.5" class="net_2"/>
  <line x1="869" x2="934" y1="1027.5" y2="1027.5" class="net_2"/>
  <line x1="82" x2="343" y1="365.5" y2="365.5" class="net_3"/>
  <line x1="343" x2="343" y1="365.5" y2="441.5" class="net_3"/>
  <circle cx="343" cy="365.5" r="2" style="fill:#000" class="net_3"/>
  <line x1="343" x2="421.5" y1="441.5" y2="441.5" class="net_3"/>
  <line x1="82" x2="935.8571428571429" y1="365.5" y2="365.5" class="net_3"/>
  <line x1="82" x2="104" y1="365.5" y2="365.5" class="net_3"/>
  <line x1="104" x2="104" y1="365.5" y2="862" class="net_3"/>
  <circle cx="104" cy="365.5" r="2" style="fill:#000" class="net_3"/>
  <circle cx="104" cy="862" r="2" style="fill:#000" class="net_3"/>
  <line x1="104" x2="430" y1="862" y2="862" class="net_3"/>
  <line x1="82" x2="104" y1="365.5" y2="365.5" class="net_3"/>
  <line x1="104" x2="104" y1="365.5" y2="96" class="net_3"/>
  <line x1="104" x2="748" y1="96" y2="96" class="net_3"/>
  <line x1="748" x2="748" y1="96" y2="167.5" class="net_3"/>
  <line x1="748" x2="803" y1="167.5" y2="167.5" class="net_3"/>
  <line x1="82" x2="104" y1="365.5" y2="365.5" class="net_3"/>
  <line x1="104" x2="104" y1="365.5" y2="320.5" class="net_3"/>
  <circle cx="104" cy="320.5" r="2" style="fill:#000" class="net_3"/>
  <line x1="104" x2="211" y1="320.5" y2="320.5" class="net_3"/>
  <line x1="82" x2="104" y1="365.5" y2="365.5" class="net_3"/>
  <line x1="104" x2="104" y1="365.5" y2="1087.5" class="net_3"/>
  <line x1="104" x2="934" y1="1087.5" y2="1087.5" class="net_3"/>
  <line x1="660" x2="689" y1="534.5" y2="534.5" class="net_76,77,78,79,80,81,82,83,84,85,86,87,88,89,90,91,92,93,94,95,96,97,98,99,100,101,102,103,104,105,106,107"/>
  <line x1="689" x2="689" y1="534.5" y2="504" class="net_76,77,78,79,80,81,82,83,84,85,86,87,88,89,90,91,92,93,94,95,96,97,98,99,100,101,102,103,104,105,106,107"/>
  <line x1="689" x2="353" y1="504" y2="504" class="net_76,77,78,79,80,81,82,83,84,85,86,87,88,89,90,91,92,93,94,95,96,97,98,99,100,101,102,103,104,105,106,107"/>
  <line x1="353" x2="353" y1="504" y2="481.5" class="net_76,77,78,79,80,81,82,83,84,85,86,87,88,89,90,91,92,93,94,95,96,97,98,99,100,101,102,103,104,105,106,107"/>
  <circle cx="689" cy="534.5" r="2" style="fill:#000" class="net_76,77,78,79,80,81,82,83,84,85,86,87,88,89,90,91,92,93,94,95,96,97,98,99,100,101,102,103,104,105,106,107"/>
  <line x1="353" x2="421.5" y1="481.5" y2="481.5" class="net_76,77,78,79,80,81,82,83,84,85,86,87,88,89,90,91,92,93,94,95,96,97,98,99,100,101,102,103,104,105,106,107"/>
  <line x1="660" x2="1102" y1="534.5" y2="534.5" class="net_76,77,78,79,80,81,82,83,84,85,86,87,88,89,90,91,92,93,94,95,96,97,98,99,100,101,102,103,104,105,106,107"/>
  <line x1="660" x2="689" y1="534.5" y2="534.5" class="net_76,77,78,79,80,81,82,83,84,85,86,87,88,89,90,91,92,93,94,95,96,97,98,99,100,101,102,103,104,105,106,107"/>
  <line x1="689" x2="689" y1="534.5" y2="648" class="net_76,77,78,79,80,81,82,83,84,85,86,87,88,89,90,91,92,93,94,95,96,97,98,99,100,101,102,103,104,105,106,107"/>
  <line x1="689" x2="714" y1="648" y2="648" class="net_76,77,78,79,80,81,82,83,84,85,86,87,88,89,90,91,92,93,94,95,96,97,98,99,100,101,102,103,104,105,106,107"/>
  <line x1="659" x2="714" y1="117.5" y2="117.5" class="net_4,5,6,7,8,9,10,11,12"/>
  <line x1="966.8571428571429" x2="1012" y1="285.5" y2="285.5" class="net_177,178,179,180,181,182,183,184,185"/>
  <line x1="1012" x2="1012" y1="285.5" y2="388" class="net_177,178,179,180,181,182,183,184,185"/>
  <line x1="1012" x2="689" y1="388" y2="388" class="net_177,178,179,180,181,182,183,184,185"/>
  <line x1="689" x2="689" y1="388" y2="137.5" class="net_177,178,179,180,181,182,183,184,185"/>
  <circle cx="1012" cy="285.5" r="2" style="fill:#000" class="net_177,178,179,180,181,182,183,184,185"/>
  <line x1="689" x2="714" y1="137.5" y2="137.5" class="net_177,178,179,180,181,182,183,184,185"/>
  <line x1="966.8571428571429" x2="1040.3333333333335" y1="285.5" y2="285.5" class="net_177,178,179,180,181,182,183,184,185"/>
  <line x1="242" x2="353" y1="240.5" y2="240.5" class="net_186"/>
  <line x1="353" x2="353" y1="240.5" y2="410" class="net_186"/>
  <line x1="353" x2="724" y1="410" y2="410" class="net_186"/>
  <line x1="724" x2="724" y1="410" y2="142.5" class="net_186"/>
  <line x1="242" x2="353" y1="240.5" y2="240.5" class="net_186"/>
  <line x1="353" x2="353" y1="240.5" y2="410" class="net_186"/>
  <line x1="353" x2="689" y1="410" y2="410" class="net_186"/>
  <line x1="689" x2="689" y1="410" y2="399" class="net_186"/>
  <line x1="689" x2="1050.3333333333335" y1="399" y2="399" class="net_186"/>
  <circle cx="689" cy="410" r="2" style="fill:#000" class="net_186"/>
  <line x1="1050.3333333333335" x2="1050.3333333333335" y1="399" y2="290.5" class="net_186"/>
  <line x1="242" x2="353" y1="240.5" y2="240.5" class="net_186"/>
  <line x1="353" x2="353" y1="240.5" y2="249.5" class="net_186"/>
  <line x1="353" x2="879" y1="249.5" y2="249.5" class="net_186"/>
  <line x1="879" x2="879" y1="249.5" y2="325.5" class="net_186"/>
  <circle cx="353" cy="249.5" r="2" style="fill:#000" class="net_186"/>
  <line x1="879" x2="935.8571428571429" y1="325.5" y2="325.5" class="net_186"/>
  <line x1="719" x2="758" y1="1008" y2="1008" class="net_44,45,46,47,48,49,50"/>
  <line x1="758" x2="758" y1="1008" y2="618" class="net_44,45,46,47,48,49,50"/>
  <line x1="758" x2="806.6666666666666" y1="618" y2="618" class="net_44,45,46,47,48,49,50"/>
  <line x1="719" x2="806.6666666666666" y1="638" y2="638" class="net_76,77,78,79,80,81,82"/>
  <line x1="461" x2="560" y1="822" y2="822" class="net_196"/>
  <line x1="560" x2="560" y1="822" y2="688.5" class="net_196"/>
  <line x1="560" x2="816.6666666666666" y1="688.5" y2="688.5" class="net_196"/>
  <line x1="816.6666666666666" x2="816.6666666666666" y1="688.5" y2="643" class="net_196"/>
  <line x1="461" x2="560" y1="822" y2="822" class="net_196"/>
  <line x1="560" x2="560" y1="822" y2="719.5" class="net_196"/>
  <circle cx="560" cy="719.5" r="2" style="fill:#000" class="net_196"/>
  <line x1="560" x2="936.1666666666666" y1="719.5" y2="719.5" class="net_196"/>
  <line x1="967.1666666666666" x2="1022" y1="659.5" y2="659.5" class="net_204,205,206,207,208,209,210"/>
  <line x1="1022" x2="1022" y1="659.5" y2="1027.5" class="net_204,205,206,207,208,209,210"/>
  <circle cx="1022" cy="659.5" r="2" style="fill:#000" class="net_204,205,206,207,208,209,210"/>
  <line x1="1022" x2="1040.3333333333335" y1="1027.5" y2="1027.5" class="net_204,205,206,207,208,209,210"/>
  <line x1="967.1666666666666" x2="1040.3333333333335" y1="659.5" y2="659.5" class="net_204,205,206,207,208,209,210"/>
  <line x1="965" x2="1040.3333333333335" y1="1047.5" y2="1047.5" class="net_211,212,213,214,215,216,217"/>
  <line x1="461" x2="590" y1="782" y2="782" class="net_218"/>
  <line x1="590" x2="590" y1="782" y2="1110" class="net_218"/>
  <line x1="590" x2="1050.3333333333335" y1="1110" y2="1110" class="net_218"/>
  <line x1="1050.3333333333335" x2="1050.3333333333335" y1="1110" y2="1052.5" class="net_218"/>
  <line x1="461" x2="590" y1="782" y2="782" class="net_218"/>
  <line x1="590" x2="590" y1="782" y2="1067.5" class="net_218"/>
  <circle cx="590" cy="1067.5" r="2" style="fill:#000" class="net_218"/>
  <line x1="590" x2="934" y1="1067.5" y2="1067.5" class="net_218"/>
  <line x1="965" x2="1012" y1="1027.5" y2="1027.5" class="net_219,220,221,222,223,224,225"/>
  <line x1="1012" x2="1012" y1="1027.5" y2="679.5" class="net_219,220,221,222,223,224,225"/>
  <line x1="1012" x2="1040.3333333333335" y1="679.5" y2="679.5" class="net_219,220,221,222,223,224,225"/>
  <line x1="461" x2="1050.3333333333335" y1="762" y2="762" class="net_226"/>
  <line x1="1050.3333333333335" x2="1050.3333333333335" y1="762" y2="684.5" class="net_226"/>
  <line x1="461" x2="600" y1="762" y2="762" class="net_226"/>
  <line x1="600" x2="600" y1="762" y2="1047.5" class="net_226"/>
  <circle cx="600" cy="762" r="2" style="fill:#000" class="net_226"/>
  <line x1="600" x2="934" y1="1047.5" y2="1047.5" class="net_226"/>
  <line x1="242" x2="323" y1="220.5" y2="220.5" class="net_227,228,229,230,231,232,233,234,235"/>
  <line x1="323" x2="323" y1="220.5" y2="63" class="net_227,228,229,230,231,232,233,234,235"/>
  <line x1="323" x2="1012" y1="63" y2="63" class="net_227,228,229,230,231,232,233,234,235"/>
  <line x1="1012" x2="1012" y1="63" y2="265.5" class="net_227,228,229,230,231,232,233,234,235"/>
  <line x1="1012" x2="1040.3333333333335" y1="265.5" y2="265.5" class="net_227,228,229,230,231,232,233,234,235"/>
  <line x1="834" x2="889" y1="107.5" y2="107.5" class="net_236,237,238,239,240,241,242,243,244"/>
  <line x1="889" x2="889" y1="107.5" y2="305.5" class="net_236,237,238,239,240,241,242,243,244"/>
  <line x1="889" x2="935.8571428571429" y1="305.5" y2="305.5" class="net_236,237,238,239,240,241,242,243,244"/>
  <line x1="834" x2="889" y1="107.5" y2="107.5" class="net_236,237,238,239,240,241,242,243,244"/>
  <line x1="889" x2="889" y1="107.5" y2="190" class="net_236,237,238,239,240,241,242,243,244"/>
  <line x1="889" x2="134" y1="190" y2="190" class="net_236,237,238,239,240,241,242,243,244"/>
  <line x1="134" x2="134" y1="190" y2="240.5" class="net_236,237,238,239,240,241,242,243,244"/>
  <circle cx="889" cy="190" r="2" style="fill:#000" class="net_236,237,238,239,240,241,242,243,244"/>
  <line x1="134" x2="211" y1="240.5" y2="240.5" class="net_236,237,238,239,240,241,242,243,244"/>
  <line x1="242" x2="869" y1="260.5" y2="260.5" class="net_245"/>
  <line x1="869" x2="869" y1="260.5" y2="345.5" class="net_245"/>
  <line x1="869" x2="935.8571428571429" y1="345.5" y2="345.5" class="net_245"/>
  <line x1="461" x2="530" y1="842" y2="842" class="net_246,247,248,249,250,251,252"/>
  <line x1="530" x2="530" y1="842" y2="597" class="net_246,247,248,249,250,251,252"/>
  <line x1="530" x2="879" y1="597" y2="597" class="net_246,247,248,249,250,251,252"/>
  <line x1="879" x2="879" y1="597" y2="659.5" class="net_246,247,248,249,250,251,252"/>
  <line x1="879" x2="936.1666666666666" y1="659.5" y2="659.5" class="net_246,247,248,249,250,251,252"/>
  <line x1="826.6666666666666" x2="869" y1="628" y2="628" class="net_197,198,199,200,201,202,203"/>
  <line x1="869" x2="869" y1="628" y2="679.5" class="net_197,198,199,200,201,202,203"/>
  <line x1="869" x2="936.1666666666666" y1="679.5" y2="679.5" class="net_197,198,199,200,201,202,203"/>
  <line x1="461" x2="520" y1="802" y2="802" class="net_253"/>
  <line x1="520" x2="520" y1="802" y2="699.5" class="net_253"/>
  <line x1="520" x2="936.1666666666666" y1="699.5" y2="699.5" class="net_253"/>
  <line x1="461" x2="580" y1="922" y2="922" class="net_254"/>
  <line x1="580" x2="580" y1="922" y2="739.5" class="net_254"/>
  <line x1="580" x2="936.1666666666666" y1="739.5" y2="739.5" class="net_254"/>
  <line x1="239" x2="313" y1="737" y2="737" class="net_108,109,110,111,112,113,114,115,116,117,118,119,120,121,122,123,124,125,126,127,128,129,130,131,132,133,134,135,136,137,138,139"/>
  <line x1="313" x2="313" y1="737" y2="782" class="net_108,109,110,111,112,113,114,115,116,117,118,119,120,121,122,123,124,125,126,127,128,129,130,131,132,133,134,135,136,137,138,139"/>
  <line x1="313" x2="430" y1="782" y2="782" class="net_108,109,110,111,112,113,114,115,116,117,118,119,120,121,122,123,124,125,126,127,128,129,130,131,132,133,134,135,136,137,138,139"/>
  <line x1="239" x2="430" y1="802" y2="802" class="net_44,45,46,47,48,49,50,51,52,53,54,55,56,57,58,59,60,61,62,63,64,65,66,67,68,69,70,71,72,73,74,75"/>
  <line x1="239" x2="313" y1="802" y2="802" class="net_44,45,46,47,48,49,50,51,52,53,54,55,56,57,58,59,60,61,62,63,64,65,66,67,68,69,70,71,72,73,74,75"/>
  <line x1="313" x2="313" y1="802" y2="1018" class="net_44,45,46,47,48,49,50,51,52,53,54,55,56,57,58,59,60,61,62,63,64,65,66,67,68,69,70,71,72,73,74,75"/>
  <circle cx="313" cy="802" r="2" style="fill:#000" class="net_44,45,46,47,48,49,50,51,52,53,54,55,56,57,58,59,60,61,62,63,64,65,66,67,68,69,70,71,72,73,74,75"/>
  <line x1="313" x2="714" y1="1018" y2="1018" class="net_44,45,46,47,48,49,50,51,52,53,54,55,56,57,58,59,60,61,62,63,64,65,66,67,68,69,70,71,72,73,74,75"/>
  <line x1="242" x2="333" y1="280.5" y2="280.5" class="net_255,256,257,258,259,260,261"/>
  <line x1="333" x2="333" y1="280.5" y2="822" class="net_255,256,257,258,259,260,261"/>
  <line x1="333" x2="430" y1="822" y2="822" class="net_255,256,257,258,259,260,261"/>
  <line x1="242" x2="323" y1="300.5" y2="300.5" class="net_262,263,264,265,266,267,268,269,270"/>
  <line x1="323" x2="323" y1="300.5" y2="842" class="net_262,263,264,265,266,267,268,269,270"/>
  <line x1="323" x2="430" y1="842" y2="842" class="net_262,263,264,265,266,267,268,269,270"/>
  <line x1="734" x2="803" y1="127.5" y2="127.5" class="net_187,188,189,190,191,192,193,194,195"/>
  <line x1="242" x2="343" y1="320.5" y2="320.5" class="net_309"/>
  <line x1="343" x2="343" y1="320.5" y2="85" class="net_309"/>
  <line x1="343" x2="758" y1="85" y2="85" class="net_309"/>
  <line x1="758" x2="758" y1="85" y2="147.5" class="net_309"/>
  <line x1="758" x2="803" y1="147.5" y2="147.5" class="net_309"/>
  <line x1="719" x2="748" y1="658" y2="658" class="net_76"/>
  <line x1="748" x2="748" y1="658" y2="677.5" class="net_76"/>
  <line x1="748" x2="124" y1="677.5" y2="677.5" class="net_76"/>
  <line x1="124" x2="124" y1="677.5" y2="220.5" class="net_76"/>
  <line x1="124" x2="211" y1="220.5" y2="220.5" class="net_76"/>
  <line x1="82" x2="114" y1="170.5" y2="170.5" class="net_4,5,6,7,8,9,10,11,12,13,14,15,16,17,18,19"/>
  <line x1="114" x2="114" y1="170.5" y2="280.5" class="net_4,5,6,7,8,9,10,11,12,13,14,15,16,17,18,19"/>
  <circle cx="114" cy="170.5" r="2" style="fill:#000" class="net_4,5,6,7,8,9,10,11,12,13,14,15,16,17,18,19"/>
  <line x1="114" x2="211" y1="280.5" y2="280.5" class="net_4,5,6,7,8,9,10,11,12,13,14,15,16,17,18,19"/>
  <line x1="82" x2="654.5" y1="170.5" y2="170.5" class="net_4,5,6,7,8,9,10,11,12,13,14,15,16,17,18,19"/>
  <line x1="654.5" x2="654.5" y1="170.5" y2="128" class="net_4,5,6,7,8,9,10,11,12,13,14,15,16,17,18,19"/>
  <line x1="82" x2="211" y1="300.5" y2="300.5" class="net_144"/>
  <line x1="461" x2="540" y1="942" y2="942" class="net_271,272,273,274,275,276,277,278,279,280,281,282,283,284,285,286,287,288,289,290,291,292,293,294,295,296,297,298,299,300,301,302"/>
  <line x1="540" x2="540" y1="942" y2="534.5" class="net_271,272,273,274,275,276,277,278,279,280,281,282,283,284,285,286,287,288,289,290,291,292,293,294,295,296,297,298,299,300,301,302"/>
  <line x1="540" x2="629" y1="534.5" y2="534.5" class="net_271,272,273,274,275,276,277,278,279,280,281,282,283,284,285,286,287,288,289,290,291,292,293,294,295,296,297,298,299,300,301,302"/>
  <line x1="452.5" x2="550" y1="441.5" y2="441.5" class="net_145,146,147,148,149,150,151,152,153,154,155,156,157,158,159,160,161,162,163,164,165,166,167,168,169,170,171,172,173,174,175,176"/>
  <line x1="550" x2="550" y1="441.5" y2="554.5" class="net_145,146,147,148,149,150,151,152,153,154,155,156,157,158,159,160,161,162,163,164,165,166,167,168,169,170,171,172,173,174,175,176"/>
  <line x1="550" x2="629" y1="554.5" y2="554.5" class="net_145,146,147,148,149,150,151,152,153,154,155,156,157,158,159,160,161,162,163,164,165,166,167,168,169,170,171,172,173,174,175,176"/>
  <line x1="461" x2="550" y1="962" y2="962" class="net_303,304,305,306,307,308"/>
  <line x1="550" x2="550" y1="962" y2="574.5" class="net_303,304,305,306,307,308"/>
  <line x1="550" x2="629" y1="574.5" y2="574.5" class="net_303,304,305,306,307,308"/>
  <line x1="1060.3333333333335" x2="1102" y1="275.5" y2="275.5" class="net_20,21,22,23,24,25,26,27,28"/>
  <line x1="461" x2="570" y1="862" y2="862" class="net_29"/>
  <line x1="570" x2="570" y1="862" y2="1121" class="net_29"/>
  <line x1="570" x2="1102" y1="1121" y2="1121" class="net_29"/>
  <line x1="1060.3333333333335" x2="1102" y1="1037.5" y2="1037.5" class="net_30,31,32,33,34,35,36"/>
  <line x1="1060.3333333333335" x2="1102" y1="669.5" y2="669.5" class="net_37,38,39,40,41,42,43"/>
  <line x1="1067" x2="1102" y1="32" y2="32" class="net_140,141"/>
  <line x1="719" x2="748" y1="1028" y2="1028" class="net_44"/>
  <line x1="748" x2="748" y1="1028" y2="1316" class="net_44"/>
  <line x1="748" x2="1102" y1="1316" y2="1316" class="net_44"/>
  <line x1="461" x2="520" y1="902" y2="902" class="net_142"/>
  <line x1="520" x2="520" y1="902" y2="1251" class="net_142"/>
  <line x1="520" x2="1102" y1="1251" y2="1251" class="net_142"/>
  <line x1="461" x2="560" y1="882" y2="882" class="net_143"/>
  <line x1="560" x2="560" y1="882" y2="1186" class="net_143"/>
  <line x1="560" x2="1102" y1="1186" y2="1186" class="net_143"/>
</svg>
