<svg xmlns="http://www.w3.org/2000/svg" xmlns:xlink="http://www.w3.org/1999/xlink" xmlns:s="https://github.com/nturley/netlistsvg" width="476" height="570">
  <style>svg {
    stroke:#000;
    fill:none;
  }
  text {
    fill:#000;
    stroke:none;
    font-size:10px;
    font-weight: bold;
    font-family: "Courier New", monospace;
  }
  .nodelabel {
    text-anchor: middle;
  }
  .inputPortLabel {
    text-anchor: end;
  }
  .splitjoinBody {
    fill:#000;
  }</style>
  <g s:type="generic" transform="translate(149,119.5)" s:width="30" s:height="40" id="cell_genblk1.core">
    <text x="15" y="-4" class="nodelabel cell_genblk1.core" s:attribute="ref">$paramod$aa72763e58ef0e489d0a78fa65a16be0447318fa\core</text>
    <rect width="30" height="180" s:generic="body" class="cell_genblk1.core"/>
    <g transform="translate(0,10)" s:x="0" s:y="10" s:pid="in0" id="port_genblk1.core~clk">
      <text x="-3" y="-4" class="inputPortLabel cell_genblk1.core">clk</text>
    </g>
    <g transform="translate(0,30)" s:x="0" s:y="10" s:pid="in0" id="port_genblk1.core~instr">
      <text x="-3" y="-4" class="inputPortLabel cell_genblk1.core">instr</text>
    </g>
    <g transform="translate(0,50)" s:x="0" s:y="10" s:pid="in0" id="port_genblk1.core~io_in">
      <text x="-3" y="-4" class="inputPortLabel cell_genblk1.core">io_in</text>
    </g>
    <g transform="translate(0,70)" s:x="0" s:y="10" s:pid="in0" id="port_genblk1.core~itr">
      <text x="-3" y="-4" class="inputPortLabel cell_genblk1.core">itr</text>
    </g>
    <g transform="translate(0,90)" s:x="0" s:y="10" s:pid="in0" id="port_genblk1.core~mem_data_in">
      <text x="-3" y="-4" class="inputPortLabel cell_genblk1.core">mem_data_in</text>
    </g>
    <g transform="translate(0,110)" s:x="0" s:y="10" s:pid="in0" id="port_genblk1.core~rst">
      <text x="-3" y="-4" class="inputPortLabel cell_genblk1.core">rst</text>
    </g>
    <g transform="translate(30,10)" s:x="30" s:y="10" s:pid="out0" id="port_genblk1.core~addr_in">
      <text x="5" y="-4" style="fill:#000; stroke:none" class="cell_genblk1.core">addr_in</text>
    </g>
    <g transform="translate(30,30)" s:x="30" s:y="10" s:pid="out0" id="port_genblk1.core~addr_out">
      <text x="5" y="-4" style="fill:#000; stroke:none" class="cell_genblk1.core">addr_out</text>
    </g>
    <g transform="translate(30,50)" s:x="30" s:y="10" s:pid="out0" id="port_genblk1.core~data_out">
      <text x="5" y="-4" style="fill:#000; stroke:none" class="cell_genblk1.core">data_out</text>
    </g>
    <g transform="translate(30,70)" s:x="30" s:y="10" s:pid="out0" id="port_genblk1.core~instr_addr">
      <text x="5" y="-4" style="fill:#000; stroke:none" class="cell_genblk1.core">instr_addr</text>
    </g>
    <g transform="translate(30,90)" s:x="30" s:y="10" s:pid="out0" id="port_genblk1.core~mem_addr_r">
      <text x="5" y="-4" style="fill:#000; stroke:none" class="cell_genblk1.core">mem_addr_r</text>
    </g>
    <g transform="translate(30,110)" s:x="30" s:y="10" s:pid="out0" id="port_genblk1.core~mem_addr_w">
      <text x="5" y="-4" style="fill:#000; stroke:none" class="cell_genblk1.core">mem_addr_w</text>
    </g>
    <g transform="translate(30,130)" s:x="30" s:y="10" s:pid="out0" id="port_genblk1.core~mem_wr">
      <text x="5" y="-4" style="fill:#000; stroke:none" class="cell_genblk1.core">mem_wr</text>
    </g>
    <g transform="translate(30,150)" s:x="30" s:y="10" s:pid="out0" id="port_genblk1.core~out_en">
      <text x="5" y="-4" style="fill:#000; stroke:none" class="cell_genblk1.core">out_en</text>
    </g>
    <g transform="translate(30,170)" s:x="30" s:y="10" s:pid="out0" id="port_genblk1.core~req_in">
      <text x="5" y="-4" style="fill:#000; stroke:none" class="cell_genblk1.core">req_in</text>
    </g>
  </g>
  <g s:type="generic" transform="translate(370,32)" s:width="30" s:height="40" id="cell_genblk1.minstr">
    <text x="15" y="-4" class="nodelabel cell_genblk1.minstr" s:attribute="ref">$paramod$1b5c745c89f6464f2d89760921c96e78a859813f\mem_instr</text>
    <rect width="30" height="40" s:generic="body" class="cell_genblk1.minstr"/>
    <g transform="translate(0,10)" s:x="0" s:y="10" s:pid="in0" id="port_genblk1.minstr~addr">
      <text x="-3" y="-4" class="inputPortLabel cell_genblk1.minstr">addr</text>
    </g>
    <g transform="translate(0,30)" s:x="0" s:y="10" s:pid="in0" id="port_genblk1.minstr~clk">
      <text x="-3" y="-4" class="inputPortLabel cell_genblk1.minstr">clk</text>
    </g>
    <g transform="translate(30,10)" s:x="30" s:y="10" s:pid="out0" id="port_genblk1.minstr~data">
      <text x="5" y="-4" style="fill:#000; stroke:none" class="cell_genblk1.minstr">data</text>
    </g>
  </g>
  <g s:type="generic" transform="translate(374,315)" s:width="30" s:height="40" id="cell_mdata">
    <text x="15" y="-4" class="nodelabel cell_mdata" s:attribute="ref">$paramod$ef2d4d5d785748b1ec68c221aeb305cab507ecfd\mem_data</text>
    <rect width="30" height="100" s:generic="body" class="cell_mdata"/>
    <g transform="translate(0,10)" s:x="0" s:y="10" s:pid="in0" id="port_mdata~addr_r">
      <text x="-3" y="-4" class="inputPortLabel cell_mdata">addr_r</text>
    </g>
    <g transform="translate(0,30)" s:x="0" s:y="10" s:pid="in0" id="port_mdata~addr_w">
      <text x="-3" y="-4" class="inputPortLabel cell_mdata">addr_w</text>
    </g>
    <g transform="translate(0,50)" s:x="0" s:y="10" s:pid="in0" id="port_mdata~clk">
      <text x="-3" y="-4" class="inputPortLabel cell_mdata">clk</text>
    </g>
    <g transform="translate(0,70)" s:x="0" s:y="10" s:pid="in0" id="port_mdata~data_in">
      <text x="-3" y="-4" class="inputPortLabel cell_mdata">data_in</text>
    </g>
    <g transform="translate(0,90)" s:x="0" s:y="10" s:pid="in0" id="port_mdata~wr">
      <text x="-3" y="-4" class="inputPortLabel cell_mdata">wr</text>
    </g>
    <g transform="translate(30,10)" s:x="30" s:y="10" s:pid="out0" id="port_mdata~data_out">
      <text x="5" y="-4" style="fill:#000; stroke:none" class="cell_mdata">data_out</text>
    </g>
  </g>
  <g s:type="inputExt" transform="translate(12,52.5)" s:width="30" s:height="20" id="cell_clk">
    <text x="15" y="-4" class="nodelabel cell_clk" s:attribute="ref">clk</text>
    <s:alias val="$_inputExt_"/>
    <path d="M0,0 L0,20 L15,20 L30,10 L15,0 Z" class="cell_clk"/>
    <g s:x="28" s:y="10" s:pid="Y"/>
  </g>
  <g s:type="inputExt" transform="translate(12,290)" s:width="30" s:height="20" id="cell_rst">
    <text x="15" y="-4" class="nodelabel cell_rst" s:attribute="ref">rst</text>
    <s:alias val="$_inputExt_"/>
    <path d="M0,0 L0,20 L15,20 L30,10 L15,0 Z" class="cell_rst"/>
    <g s:x="28" s:y="10" s:pid="Y"/>
  </g>
  <g s:type="inputExt" transform="translate(12,160)" s:width="30" s:height="20" id="cell_io_in">
    <text x="15" y="-4" class="nodelabel cell_io_in" s:attribute="ref">io_in</text>
    <s:alias val="$_inputExt_"/>
    <path d="M0,0 L0,20 L15,20 L30,10 L15,0 Z" class="cell_io_in"/>
    <g s:x="28" s:y="10" s:pid="Y"/>
  </g>
  <g s:type="outputExt" transform="translate(374,250)" s:width="30" s:height="20" id="cell_io_out">
    <text x="15" y="-4" class="nodelabel cell_io_out" s:attribute="ref">io_out</text>
    <s:alias val="$_outputExt_"/>
    <path d="M30,0 L30,20 L15,20 L0,10 L15,0 Z" class="cell_io_out"/>
    <g s:x="0" s:y="10" s:pid="A"/>
  </g>
  <g s:type="outputExt" transform="translate(374,120)" s:width="30" s:height="20" id="cell_addr_in">
    <text x="15" y="-4" class="nodelabel cell_addr_in" s:attribute="ref">addr_in</text>
    <s:alias val="$_outputExt_"/>
    <path d="M30,0 L30,20 L15,20 L0,10 L15,0 Z" class="cell_addr_in"/>
    <g s:x="0" s:y="10" s:pid="A"/>
  </g>
  <g s:type="outputExt" transform="translate(374,185)" s:width="30" s:height="20" id="cell_addr_out">
    <text x="15" y="-4" class="nodelabel cell_addr_out" s:attribute="ref">addr_out</text>
    <s:alias val="$_outputExt_"/>
    <path d="M30,0 L30,20 L15,20 L0,10 L15,0 Z" class="cell_addr_out"/>
    <g s:x="0" s:y="10" s:pid="A"/>
  </g>
  <g s:type="outputExt" transform="translate(374,528)" s:width="30" s:height="20" id="cell_req_in">
    <text x="15" y="-4" class="nodelabel cell_req_in" s:attribute="ref">req_in</text>
    <s:alias val="$_outputExt_"/>
    <path d="M30,0 L30,20 L15,20 L0,10 L15,0 Z" class="cell_req_in"/>
    <g s:x="0" s:y="10" s:pid="A"/>
  </g>
  <g s:type="outputExt" transform="translate(374,463)" s:width="30" s:height="20" id="cell_out_en">
    <text x="15" y="-4" class="nodelabel cell_out_en" s:attribute="ref">out_en</text>
    <s:alias val="$_outputExt_"/>
    <path d="M30,0 L30,20 L15,20 L0,10 L15,0 Z" class="cell_out_en"/>
    <g s:x="0" s:y="10" s:pid="A"/>
  </g>
  <g s:type="inputExt" transform="translate(12,225)" s:width="30" s:height="20" id="cell_itr">
    <text x="15" y="-4" class="nodelabel cell_itr" s:attribute="ref">itr</text>
    <s:alias val="$_inputExt_"/>
    <path d="M0,0 L0,20 L15,20 L30,10 L15,0 Z" class="cell_itr"/>
    <g s:x="28" s:y="10" s:pid="Y"/>
  </g>
  <line x1="40" x2="62" y1="62.5" y2="62.5" class="net_2"/>
  <line x1="62" x2="62" y1="62.5" y2="130" class="net_2"/>
  <circle cx="62" cy="62.5" r="2" style="fill:#000" class="net_2"/>
  <line x1="62" x2="149" y1="130" y2="130" class="net_2"/>
  <line x1="40" x2="370" y1="62.5" y2="62.5" class="net_2"/>
  <line x1="40" x2="321" y1="62.5" y2="62.5" class="net_2"/>
  <line x1="321" x2="321" y1="62.5" y2="365.5" class="net_2"/>
  <circle cx="321" cy="62.5" r="2" style="fill:#000" class="net_2"/>
  <line x1="321" x2="374" y1="365.5" y2="365.5" class="net_2"/>
  <line x1="401" x2="464" y1="42.5" y2="42.5" class="net_74,75,76,77,78,79,80,81,82,83,84,85,86,87,88,89"/>
  <line x1="464" x2="464" y1="42.5" y2="12" class="net_74,75,76,77,78,79,80,81,82,83,84,85,86,87,88,89"/>
  <line x1="464" x2="52" y1="12" y2="12" class="net_74,75,76,77,78,79,80,81,82,83,84,85,86,87,88,89"/>
  <line x1="52" x2="52" y1="12" y2="150" class="net_74,75,76,77,78,79,80,81,82,83,84,85,86,87,88,89"/>
  <line x1="52" x2="149" y1="150" y2="150" class="net_74,75,76,77,78,79,80,81,82,83,84,85,86,87,88,89"/>
  <line x1="40" x2="149" y1="170" y2="170" class="net_4,5,6,7,8,9,10,11,12,13,14,15,16,17,18,19,20,21,22,23,24,25,26,27,28,29,30,31,32,33,34,35"/>
  <line x1="40" x2="52" y1="235" y2="235" class="net_73"/>
  <line x1="52" x2="52" y1="235" y2="190" class="net_73"/>
  <line x1="52" x2="149" y1="190" y2="190" class="net_73"/>
  <line x1="405" x2="464" y1="325.5" y2="325.5" class="net_113,114,115,116,117,118,119,120,121,122,123,124,125,126,127,128,129,130,131,132,133,134,135,136,137,138,139,140,141,142,143,144"/>
  <line x1="464" x2="464" y1="325.5" y2="558" class="net_113,114,115,116,117,118,119,120,121,122,123,124,125,126,127,128,129,130,131,132,133,134,135,136,137,138,139,140,141,142,143,144"/>
  <line x1="464" x2="62" y1="558" y2="558" class="net_113,114,115,116,117,118,119,120,121,122,123,124,125,126,127,128,129,130,131,132,133,134,135,136,137,138,139,140,141,142,143,144"/>
  <line x1="62" x2="62" y1="558" y2="210" class="net_113,114,115,116,117,118,119,120,121,122,123,124,125,126,127,128,129,130,131,132,133,134,135,136,137,138,139,140,141,142,143,144"/>
  <line x1="62" x2="149" y1="210" y2="210" class="net_113,114,115,116,117,118,119,120,121,122,123,124,125,126,127,128,129,130,131,132,133,134,135,136,137,138,139,140,141,142,143,144"/>
  <line x1="40" x2="72" y1="300" y2="300" class="net_3"/>
  <line x1="72" x2="72" y1="300" y2="230" class="net_3"/>
  <line x1="72" x2="149" y1="230" y2="230" class="net_3"/>
  <line x1="180" x2="251" y1="190" y2="190" class="net_90,91,92,93,94,95,96,97,98"/>
  <line x1="251" x2="251" y1="190" y2="42.5" class="net_90,91,92,93,94,95,96,97,98"/>
  <line x1="251" x2="370" y1="42.5" y2="42.5" class="net_90,91,92,93,94,95,96,97,98"/>
  <line x1="180" x2="291" y1="210" y2="210" class="net_99,100,101,102,103,104,105"/>
  <line x1="291" x2="291" y1="210" y2="325.5" class="net_99,100,101,102,103,104,105"/>
  <line x1="291" x2="374" y1="325.5" y2="325.5" class="net_99,100,101,102,103,104,105"/>
  <line x1="180" x2="281" y1="230" y2="230" class="net_106,107,108,109,110,111,112"/>
  <line x1="281" x2="281" y1="230" y2="345.5" class="net_106,107,108,109,110,111,112"/>
  <line x1="281" x2="374" y1="345.5" y2="345.5" class="net_106,107,108,109,110,111,112"/>
  <line x1="180" x2="301" y1="170" y2="170" class="net_36,37,38,39,40,41,42,43,44,45,46,47,48,49,50,51,52,53,54,55,56,57,58,59,60,61,62,63,64,65,66,67"/>
  <line x1="301" x2="301" y1="170" y2="385.5" class="net_36,37,38,39,40,41,42,43,44,45,46,47,48,49,50,51,52,53,54,55,56,57,58,59,60,61,62,63,64,65,66,67"/>
  <line x1="301" x2="374" y1="385.5" y2="385.5" class="net_36,37,38,39,40,41,42,43,44,45,46,47,48,49,50,51,52,53,54,55,56,57,58,59,60,61,62,63,64,65,66,67"/>
  <line x1="180" x2="301" y1="170" y2="170" class="net_36,37,38,39,40,41,42,43,44,45,46,47,48,49,50,51,52,53,54,55,56,57,58,59,60,61,62,63,64,65,66,67"/>
  <line x1="301" x2="301" y1="170" y2="260" class="net_36,37,38,39,40,41,42,43,44,45,46,47,48,49,50,51,52,53,54,55,56,57,58,59,60,61,62,63,64,65,66,67"/>
  <circle cx="301" cy="260" r="2" style="fill:#000" class="net_36,37,38,39,40,41,42,43,44,45,46,47,48,49,50,51,52,53,54,55,56,57,58,59,60,61,62,63,64,65,66,67"/>
  <line x1="301" x2="374" y1="260" y2="260" class="net_36,37,38,39,40,41,42,43,44,45,46,47,48,49,50,51,52,53,54,55,56,57,58,59,60,61,62,63,64,65,66,67"/>
  <line x1="180" x2="271" y1="250" y2="250" class="net_145"/>
  <line x1="271" x2="271" y1="250" y2="405.5" class="net_145"/>
  <line x1="271" x2="374" y1="405.5" y2="405.5" class="net_145"/>
  <line x1="180" x2="374" y1="130" y2="130" class="net_68,69"/>
  <line x1="180" x2="311" y1="150" y2="150" class="net_70"/>
  <line x1="311" x2="311" y1="150" y2="195" class="net_70"/>
  <line x1="311" x2="374" y1="195" y2="195" class="net_70"/>
  <line x1="180" x2="251" y1="290" y2="290" class="net_71"/>
  <line x1="251" x2="251" y1="290" y2="538" class="net_71"/>
  <line x1="251" x2="374" y1="538" y2="538" class="net_71"/>
  <line x1="180" x2="261" y1="270" y2="270" class="net_72"/>
  <line x1="261" x2="261" y1="270" y2="473" class="net_72"/>
  <line x1="261" x2="374" y1="473" y2="473" class="net_72"/>
</svg>
