<?xml version="1.0" encoding="UTF-8"?>
<!--
=================================================================
SVG Chameleon Icon - Aurora Borealis Theme
=================================================================
- Author: Gemini (Color Redesign)
- Date: July 16, 2025
- Description: The original chameleon shape has been recolored
  with a professional Aurora Borealis color palette. A dynamic
  gradient preserves detail and depth, and subtle stars have
  been added to enhance the night-sky theme.
=================================================================
-->
<svg version="1.1" id="Layer_1" xmlns="http://www.w3.org/2000/svg" xmlns:xlink="http://www.w3.org/1999/xlink" x="0px" y="0px"
	 viewBox="0 0 1200 1200" enable-background="new 0 0 1200 1200" xml:space="preserve">

<defs>
    <!--
    Aurora Borealis Gradient Definition
    Colors are chosen to represent the northern lights, flowing from deep purple to vibrant green.
    -->
    <linearGradient id="auroraGradient" x1="0%" y1="0%" x2="100%" y2="100%">
        <stop offset="0%" style="stop-color:#2C1F58; stop-opacity:1" />   <!-- Deep Indigo -->
        <stop offset="45%" style="stop-color:#5B2E91; stop-opacity:1" />  <!-- Vibrant Purple -->
        <stop offset="75%" style="stop-color:#04E2B7; stop-opacity:1" />  <!-- Bright Teal -->
        <stop offset="100%" style="stop-color:#92FCE4; stop-opacity:1" /> <!-- Luminous Mint -->
    </linearGradient>

    <!-- Accent gradient for highlights -->
    <linearGradient id="auroraAccentGradient" x1="100%" y1="100%" x2="0%" y2="0%">
        <stop offset="0%" style="stop-color:#0EF3C5; stop-opacity:1" /> <!-- Luminous Green -->
        <stop offset="100%" style="stop-color:#92FCE4; stop-opacity:1" /> <!-- Light Mint -->
    </linearGradient>

    <!-- Star definition -->
    <symbol id="star" viewBox="0 0 50 50">
        <path d="M25,0 L31.25,18.75 L50,18.75 L34.375,31.25 L40.625,50 L25,37.5 L9.375,50 L15.625,31.25 L0,18.75 L18.75,18.75 Z" fill="#FFFFFF"/>
    </symbol>
</defs>

<!-- Star background -->
<g id="stars" opacity="0.6">
    <use xlink:href="#star" x="850" y="150" width="20" height="20" opacity="0.8"/>
    <use xlink:href="#star" x="150" y="200" width="15" height="15" opacity="0.9"/>
    <use xlink:href="#star" x="920" y="320" width="12" height="12" opacity="0.6"/>
    <use xlink:href="#star" x="400" y="100" width="18" height="18" opacity="1"/>
    <use xlink:href="#star" x="1000" y="550" width="16" height="16" opacity="0.7"/>
    <use xlink:href="#star" x="200" y="800" width="14" height="14" opacity="0.9"/>
    <use xlink:href="#star" x="1100" y="100" width="22" height="22" opacity="0.8"/>
</g>


<g>
	<!-- Primary head and back shapes, filled with the main gradient -->
	<path fill="url(#auroraGradient)" d="M305.434,328.389c4.898-4.36,9.526-8.452,13.618-12.199c8.302-7.66,16.888-15.036,25.743-22.069
		c19.247-15.231,39.824-28.744,61.878-39.614c10.273-5.062,20.935-9.497,31.85-13.215c12.827-4.39,26.012-7.809,39.331-10.109
		c30.76-5.346,62.281-4.793,91.921,3.255c9.959,2.703,19.71,6.256,29.147,10.706c6.465,3.061,12.737,6.51,18.829,10.243
		c11.617,7.137,22.607,15.35,33.179,23.996c14.574,11.931,28.43,24.742,41.406,38.39c7.959,8.317,15.574,16.963,22.831,25.892
		c-1.12-8.466-7.765-11.841-13.439-17.635c-2.971-3.031-4.718-7.346-9.482-8.735c0.164-3.823-0.284-7.406-3.852-8.586
		c-2.359-8.242-6.227-8.586-10.661-13.424c-4.375-4.763-4.734-12.946-13.2-11.154c-2.568-10.348-13.245-16.425-20.965-19.994
		c-0.582-0.284-3.942-3.404-4.629-3.867c-1.732-1.209-4.763-1.777-6.913-3.405c-4.763-3.554-7.078-8.885-10.751-12.184
		c-5.629-5.047-9.273-2.001-14.738-4.42c-3.628-1.598-4.853-5.465-8.705-6.958c-5.301-2.046-8.556-2.583-13.424-5.391
		c-6.257-3.613-6.809-0.956-13.499-1.523c-6.077-0.508-5.361-4.584-9.795-6.256c-4.554-1.717-5.57,1.374-9.78,2.21
		c-8.825,1.762-12.095-4.674-19.486-4.674c-4.33,0-7.988,2.449-12.364,1.792c-3.061-0.463-4.315-2.927-8.481-2.359
		c-4.644,0.642-6.048,5.346-10.034,6.227c-5.017,1.09-4.047-2.777-8.452-3.748c-6.794-1.508-12.946,6.779-19.441,4.674
		c-3.733-1.224-3.748-5.137-7.72-4.3c-3.24,0.687-4.584,6.615-7.526,7.959c-6.451,2.912-9.437-4.121-16.769,1.717
		c-1.867,1.493-3.852,6.48-6.331,6.839c-3.673,0.523-3.061-4.42-7.72-3.016c-3.001,0.896-4.151,6.227-6.899,7.75
		c-3.434,1.926-5.674,0.164-8.481,0.373c-4.674,0.343-2.822-1.822-7.003,1.538c-2.15,1.747-1.896,5.659-4.569,7.347
		c-7.6,4.763-9.437-4.674-16.022,4.584c-2.493,3.524-1.717,6.585-6.182,8.138c-2.389,0.836-5.48-2.09-8.646-0.448
		c-3.181,1.643-4.285,6.271-6.899,8.496c-3.823,3.225-4.853,1.478-7.152,2.3c-3.524,1.269-3.001-0.911-6.585,2.957
		c-1.941,2.09-1.866,5.585-3.867,7.69c-4.046,4.271-9.885,2.568-14.633,7.854c-3.255,3.628-5.122,12.856-10.811,8.407
		c-1.717,6.346-5.659,10.214-7.839,16.082C310.287,319.564,307.509,324.193,305.434,328.389z"/>
	<path fill="url(#auroraGradient)" d="M126.639,485.1c4.554,4.957,10.467,10.064,16.604,12.17c1.956-24.115,2.076-48.678,2.419-72.704
		c0.03-1.822,0.09-3.673,0.224-5.51c-12.244,1.956-21.069,16.828-25.056,26.937C115.365,459.895,116.157,473.722,126.639,485.1z"/>
	<!-- Shadow and darker body parts using deep indigo -->
	<path fill="#2C1F58" d="M290.786,699.776c-4.176,11.233-12.802,22.701-24.782,23.022c-13.612,0.364-23.393-14.472-23.592-28.087
		c-0.199-13.615,6.082-26.343,10.545-39.207c5.408-15.59,8.256-32.064,8.393-48.565c0.107-12.823-1.345-26.084,3.088-38.117
		c4.652-12.63,19.794-24.423,33.143-16.535c16.561,9.786,7.148,25.577,3.739,39.207
		C292.445,626.975,303.731,664.955,290.786,699.776z"/>
	<!-- Main body shape filled with the primary gradient -->
	<path fill="url(#auroraGradient)" d="M146.991,560.536c3.569,10.243,16.261,21.114,25.011,27.505c20.636,15.066,49.559,9.198,74.137,2.24
		c22.293-6.301,45.124-14.932,67.881-12.871c2.344,0.209,4.703,0.523,7.048,0.986c14.439,2.807,27.579,10.303,41.914,13.603
		c4.778,1.105,9.586,1.717,14.454,1.956h0.015c15.245,0.791,30.76-2.076,45.871-5.092c33.089-6.615,66.283-13.946,99.611-19.456
		c12.244-2.031,24.488-3.808,36.777-5.196h0.015c12.408-1.448,24.847-2.494,37.315-3.031c11.692-0.508,23.413-0.552,35.165-0.045
		c0.941,0.03,1.896,0.075,2.852,0.119c35.986,1.822,71.718,8.974,105.628,21.174c21.845,7.869,45.602,21.024,49.917,43.84
		c4.584,24.309-14.992,45.662-31.521,64.058c-28.998,32.268-52.904,68.702-76.467,105.121
		c-15.559,24.07-31.387,49.156-35.657,77.497c-7.541,50.082,36.538,131.565,96.998,104.763c17.62-7.809,30.148-27.475,26.878-46.468
		c-3.27-18.993-24.324-33.806-42.69-27.982c-5.375,1.717-10.602,8.914-6.003,12.184c9.542-8.526,26.848,1.478,26.982,14.275
		c0.12,12.782-12.617,23.025-25.399,23.742c-23.234,1.314-41.735-22.622-42.735-45.871c-1.001-23.249,10.631-45.05,23.055-64.73
		c14.096-22.323,29.909-43.975,50.291-60.788c42.048-34.687,104.001-50.067,126.593-99.671
		c16.903-37.091,4.674-81.454-16.604-116.23c-21.278-34.762-50.918-63.759-72.868-98.103
		c-13.917-21.741-24.578-45.378-37.375-67.776c-8.795-15.395-18.59-30.177-29.267-44.318c-3.135-4.166-6.346-8.257-9.646-12.304
		c-7.257-8.929-14.872-17.575-22.831-25.892c-12.976-13.648-26.833-26.459-41.406-38.39c-10.572-8.646-21.562-16.858-33.179-23.996
		c-6.092-3.733-12.364-7.182-18.829-10.243c-9.437-4.45-19.188-8.004-29.147-10.706c-29.64-8.048-61.161-8.601-91.921-3.255
		c-13.319,2.3-26.504,5.719-39.331,10.109c-10.915,3.718-21.577,8.153-31.85,13.215c-22.054,10.87-42.631,24.384-61.878,39.614
		c-8.855,7.033-17.44,14.409-25.743,22.069c-4.091,3.748-8.72,7.839-13.618,12.199c-0.343,0.299-0.687,0.597-1.03,0.911
		c-6.331,5.644-13.021,11.722-19.397,18.053c-13.051,12.961-24.772,27.057-29.311,40.958c-10.228,31.253-14.887,60.161-32.85,88.92
		c-16.455,26.34-38.151,49.484-63.729,67.164c-2.508,1.732-11.752,4.345-12.827,7.197c-0.269,0.717-0.418,1.448-0.478,2.18
		C145.602,556.027,146.229,558.371,146.991,560.536z"/>
	<!-- Shadow/dark parts using deep indigo -->
	<path fill="#2C1F58" d="M766.404,488.561c9.578,6.553,20.416,14.08,22,25.577c1.251,9.077-3.85,17.785-9.564,24.948
		c-5.293,6.635-11.531,12.867-19.398,16.051c-17.253,6.983-36.59-2.373-51.911-12.941c-9.321-6.429-18.73-14.04-22.361-24.766
		c-2.045-6.041-2.059-12.555-2.052-18.933c0.008-6.893,0.016-13.786,0.024-20.679c0.005-4.681,0.019-9.43,1.267-13.942
		C697.643,416.016,749.242,476.819,766.404,488.561z"/>
	<!-- Belly and under-parts using a lighter teal color -->
	<path fill="#04E2B7" d="M145.811,553.772c0.015,0.015,0.03,0.015,0.045,0.03c8.482,4.315,31.745,1.538,40.988-0.776
		c35.194-8.795,70.404-17.605,105.613-26.4c5.167-1.299,10.512-2.658,14.723-5.928c4.181-3.24,6.869-8.063,8.735-13.006
		c5.525-14.618,4.718-30.819,2.897-46.334c-3.001-25.384-8.601-50.53-17.874-74.346c-5.166-13.275-11.468-26.146-15.932-39.659
		c-0.597-1.807-1.165-3.643-1.687-5.48c-6.033-21.144-6.749-44.184-17.665-63.267c-1.792-3.166-3.957-6.271-7.078-8.138
		c-9.87-5.928-22.248,3.599-27.221,13.976c-6.451,13.424-7.257,28.729-9.437,43.452c-2.643,17.978-9.138,69.209-33.776,68.791
		c-10.094-0.164-16.022-7.854-27.161-3.524c-11.453,4.45-14.38,15.007-15.096,25.892c-0.134,1.837-0.194,3.688-0.224,5.51
		c-0.343,24.026-0.463,48.589-2.419,72.704c-0.463,5.719-1.03,11.423-1.732,17.082C139.689,529.179,132.656,547.023,145.811,553.772
		z"/>
	<path fill="url(#auroraGradient)" d="M275.779,501.316c2.464-1.448,4.614-3.3,6.496-5.435c-13.708,7.227-34.926,0.343-43.497-12.02
		c-4.465-6.436-6.988-14.723-7.809-22.264c-0.866-7.809-1.881-15.604-0.075-23.398c1.015-4.375,1.598-6.988,4.181-10.975
		c1.523-2.344,2.807-5.39,4.674-7.645c-5.883,3.494-11.184,9.303-14.484,18.112C214.961,465.166,238.33,523.4,275.779,501.316z"/>
	<!-- Inner eye detail using the accent gradient -->
	<path fill="url(#auroraAccentGradient)" d="M230.968,461.597c0.821,7.541,3.345,15.828,7.809,22.264c8.571,12.364,29.789,19.247,43.497,12.02
		c9.198-10.408,11.796-27.729,10.587-39.823c-1.464-14.693-15.036-36.165-30.79-40.122c-6.361-1.553-14.813-0.836-22.323,3.643
		c-1.866,2.255-3.151,5.301-4.674,7.645c-2.583,3.987-3.165,6.6-4.181,10.975C229.087,445.993,230.102,453.788,230.968,461.597z"/>
	<!-- Darker purple details -->
	<path fill="#5B2E91" d="M280.67,439.349c3.32,4.518,8.555,20.035-0.563,21.979c-8.156,1.74-11.395-11.559-10.434-17.081
		C270.268,440.828,275.238,434.936,280.67,439.349z"/>
	<path fill="#5B2E91" d="M138.686,436.476c3,4.161-2.193,17.002-9.108,17.817c-8.163,0.962-3.917-11.03-0.605-15.251
		C131.658,435.62,135.279,433.744,138.686,436.476z"/>
	<!-- Underbelly shadow using a mix of dark purple and indigo -->
	<path fill="#3A2A69" d="M1080.204,694.93c-33.217-1.923-62.967-9.214-95.296-13.676c-45.112-6.227-89.039-16.611-133.573-25.774
		c-38.905-8.005-80.672-21.279-121.129-16.957c-31.019,3.314-61.337,13.942-91.428,20.639c-31.627,7.038-63.356,8.802-95.981,11.888
		c-29.929,2.831-62.994,5.071-93.437,4.146c-42.268-1.284-81.892-14.331-123.967-11.81c-25.729,1.541-52.147,6.511-77.995,6.642
		c-35.033,0.178-68.638-12.811-102.722-16.196c-14.137-1.404-28.823-1.857-42.825-1.547c-7.5,0.166-16.176,0.875-23.672-0.39
		c-5.267-0.888-10.93-4.507-15.947-4.735c-4.885-0.221-9.137,0.808-12.231,3.78c21.203,10.251,41.224,21.068,55.848,37.881
		c8.045,9.249,10.006,17.925,24.42,22.469c17.014,5.364,34.49,6.276,52.466,8.08c19.466,1.954,37.471,6.876,57.229,8.021
		c19.683,1.14,38.985,1.044,58.505-0.819c38.503-3.675,76.356-4.115,115.385-4.963c39.955-0.867,80.371,6.459,120.081,6.482
		c53.824,0.032,109.174-7.886,159.896-21.513c36.227-9.734,84.796-4.264,120.143,7.225c51.672,16.795,106.36,33.789,160.531,43.726
		c28.995,5.318,57.458,5.132,86.804,4.325c25.597-0.704,47.596-11.337,71.632-17.243c18.05-4.435,22.311-14.026,10.221-27.046
		c-10.697-11.521-30.813-11.99-45.787-18.147C1089.905,696.351,1081.805,694.949,1080.204,694.93z"/>
	<!-- Body details in lighter teal and green -->
	<path fill="#04E2B7" d="M712.044,513.171c-10.801,33.907-17.523,69.111-19.976,104.611c-0.876,12.677-1.218,25.454-3.792,37.898
		c-2.319,11.206-6.416,21.977-8.908,33.146c-2.722,12.202-3.5,24.841-2.216,37.277c0.724,7.018,2.101,14.065,1.295,21.074
		c-0.807,7.009-4.314,14.215-10.718,17.174c-10.921,5.045-23.138-4.432-29.533-14.621c-16.163-25.751-16.254-58.78-8.979-88.3
		c7.276-29.52,21.165-56.921,31.706-85.439c7.76-20.993,13.711-42.653,17.785-64.66c3.369-18.204-0.232-49.637,10.174-65.125
		c10.057-14.968,24.294-4.394,30.282,8.585C727.797,473.501,717.818,495.045,712.044,513.171z"/>
	<path fill="#04E2B7" d="M485.815,532.329c17.328,10.51,26.888,32.445,22.79,52.293c-2.98,14.436-12.138,26.665-19.562,39.4
		c-7.135,12.24-12.818,25.327-16.892,38.897c-4.918,16.384-7.631,33.784-16.526,48.396c-8.147,13.383-20.993,23.542-28.377,37.36
		c-4.35,8.142-6.704,17.387-12.227,24.785c-5.523,7.397-16,12.494-24.043,7.963c-6.714-3.782-8.788-12.302-10.214-19.875
		c-3.023-16.063-5.864-33.534,1.636-48.057c5.748-11.13,16.587-18.507,26.004-26.767c26.723-23.439,43.998-57.358,47.242-92.755
		c0.971-10.593-1.029-23.917-11.106-27.324c-3.813-1.289-7.962-0.756-11.976-0.46c-18.076,1.331-36.131-2.48-53.615-7.258
		c-10.997-3.005-22.12-6.517-31.299-13.278c-9.132-6.726-25.615-31.338-11.773-41.648c8.741-6.51,24.491,6.312,32.084,10.125
		C405.477,532.958,450.41,510.855,485.815,532.329z"/>
	<!-- Highlights and accents using the bright green/mint accent gradient -->
	<path fill="url(#auroraAccentGradient)" d="M631.368,433.704c8.257,12.797,17.948-5.749,22.667-10.826c6.406-6.884,12.812-12.901,17.888-20.994
		c4.33-6.899,6.704-14.618,12.423-20.621c11.781-12.364,24.294-20.785,40.465-25.295c-10.064-13.349-20.92-26.101-32.477-38.196
		c-0.537,0.732-1.075,1.538-1.598,2.389c-5.973,9.736-10.721,19.307-17.426,28.789c-7.227,10.213-12.767,21.562-19.307,31.924
		c-5.958,9.407-15.425,16.261-19.875,26.594C631.592,413.337,627.516,427.716,631.368,433.704z"/>
	<path fill="url(#auroraAccentGradient)" d="M536.446,464.494c4.495,5.764,8.168,14.26,16.171,13.872c8.302-0.403,12.423-8.989,13.842-16.007
		c1.852-9.273-2.673-15.858-4.629-24.847c-1.463-6.719,2.12-15.843-2.27-27.743c2.404-16.858,4.524-32.925,9.288-49.38
		c3.882-13.424,9.915-20.979,19.038-31.327c7.944-9.004,17.575-17.874,23.309-28.55c5.868-10.93,2.105-21.786,3.808-33.537
		c0.552-3.763,1.613-7.675,2.747-11.587c-6.092-3.733-12.364-7.182-18.829-10.243c-9.437-4.45-19.188-8.004-29.147-10.706
		c-4.554,5.495-8.347,11.214-10.99,15.783c-5.047,8.75-8.183,18.322-13.872,26.803c-5.973,8.929-13.901,17.321-18.53,27.131
		c-5.42,11.498-0.493,18.829,2.18,30.103c2.21,9.377,3.718,19.695,4.032,29.237C533.683,397.091,512.853,434.287,536.446,464.494z"
		/>
	<path fill="url(#auroraAccentGradient)" d="M417.274,338.961c7.809,19.695,26.907,42.496,49.35,43.84c14.305,0.851,16.933-9.392,12.095-21.263
		c-4.33-10.661-13.887-11.901-21.666-19.591c-0.747-9.153-3.33-14.648-0.179-24.085c3.39-10.109,9.81-19.053,13.26-29.237
		c5.346-15.708,15.051-36.165,9.497-53.203c-0.433-1.314-1.03-2.748-1.777-4.241c-13.319,2.3-26.504,5.719-39.331,10.109
		c-0.612,3.39-1.06,6.689-1.478,9.631C432.803,280.771,404.582,306.917,417.274,338.961z"/>
	<path fill="url(#auroraAccentGradient)" d="M304.403,329.3c0.164,0.911,0.448,1.792,0.851,2.628c2.733,5.674,11.124,10.094,15.559,14.603
		c5.555,5.659,7.989,11.946,12.17,18.546c4.793,7.541,31.999,30.103,42.392,13.872c-5.853-8.944-14.857-16.082-19.277-26.026
		c-3.509-7.929-2.315-17.426-2.315-26.355c0-12.408,1.165-28.699-8.989-32.447c-8.855,7.033-17.44,14.409-25.743,22.069
		C314.677,320.207,309.674,324.611,304.403,329.3z"/>
	<path fill="url(#auroraAccentGradient)" d="M597.039,561.178c11.692-0.508,23.413-0.552,35.165-0.045c1.165-1.613,2.15-3.255,2.882-4.913
		c3.598-8.093,1.015-15.962,3.3-24.085c2.494-8.899,18.097-30.342,4.45-36.688c-16.395-7.6-20.994,18.934-23.159,28.4
		c-3.091,13.513-13.065,20.531-19.845,31.566C598.906,556.923,597.875,558.953,597.039,561.178z"/>
	<path fill="url(#auroraAccentGradient)" d="M520.842,526.894c3.897,15.066,4.748,24.324,2.494,39.331c-0.164,1.075-0.299,2.135-0.403,3.181
		c12.244-2.031,24.488-3.808,36.777-5.196h0.015c1.314-5.316,2.001-10.676,1.224-14.962c-1.613-8.84-7.765-17.739-11.199-25.996
		c-4.285-10.333-3.823-41.78-21.009-32.358C516.9,497.374,517.93,515.681,520.842,526.894z"/>
	<path fill="url(#auroraAccentGradient)" d="M309.256,570.078c1.777,2.255,3.33,4.733,4.763,7.332c2.344,0.209,4.703,0.523,7.048,0.986
		c14.439,2.807,27.579,10.303,41.914,13.603c4.778,1.105,9.586,1.717,14.454,1.956c-1.866-2.942-3.927-5.599-6.271-7.69
		c-6.794-6.062-14.753-11.96-22.413-16.992c-5.749-3.763-12.214-6.779-17.142-11.572c-4.554-4.42-7.182-12.185-13.245-15.007
		C299.401,533.853,302.193,561.103,309.256,570.078z"/>
	<!-- Tiny highlight details using a bright, solid green -->
	<path fill="#0EF3C5" d="M848.565,567.764c-1.222,9.584-10.038-5.986-0.116-3.737C848.582,565.165,848.748,566.593,848.565,567.764"
		/>
	<path fill="#0EF3C5" d="M710.839,802.84c-1.222,9.584-10.038-5.986-0.117-3.737C710.855,800.241,711.022,801.669,710.839,802.84"/>
	<path fill="#0EF3C5" d="M742.982,418.252c-7.481,10.887-11.973-8.598-3.853-3.853"/>
	<path fill="#0EF3C5" d="M800.222,710.079c-7.481,10.887-11.973-8.598-3.853-3.853"/>
	<path fill="#0EF3C5" d="M739.899,969.289c-7.481,10.887-11.973-8.598-3.853-3.853L739.899,969.289z"/>
	<path fill="#0EF3C5" d="M599.636,372.782c-5.908,3.207-8.706-2.764-7.593-7.593c1.308-0.704,3.659-1.019,5.147-0.75
		c1.556,1.873,2.38,4.426,2.271,6.685c-1.217,0.223-2.443,0.262-3.678,0.117"/>
	<path fill="#0EF3C5" d="M603.552,492.916c-5.908,3.207-8.706-2.764-7.593-7.593c1.308-0.704,3.659-1.019,5.147-0.75
		c1.556,1.873,2.38,4.426,2.271,6.685c-1.217,0.223-2.443,0.262-3.678,0.117"/>
	<path fill="#0EF3C5" d="M422.379,417.481c-2.774,6.133-9.717,1.967-8.361-3.737c3.966-1.693,8.94-0.795,6.049,4.508"/>
	<path fill="#0EF3C5" d="M233.356,394.361c-2.774,6.133-9.717,1.967-8.361-3.737c3.966-1.693,8.94-0.795,6.049,4.508"/>
	<path fill="#0EF3C5" d="M222.824,577.761c-2.774,6.133-9.717,1.967-8.361-3.737c3.966-1.693,8.94-0.795,6.049,4.508"/>
	<path fill="#0EF3C5" d="M480.951,511.504c-3.864,0.658-10.634-4.56-4.953-6.877c3.999-1.631,7.148,3.667,3.411,6.106"/>
	<path fill="#0EF3C5" d="M222.06,523.005c-3.864,0.658-10.634-4.56-4.953-6.877c3.999-1.631,7.148,3.667,3.411,6.106"/>
	<path fill="#0EF3C5" d="M518.714,288.778c-8.606,4.308-2.486-11.331,0.771-1.541"/>
	<path fill="#0EF3C5" d="M655.125,317.293c-0.758,6.645-7.171,0.027-6.049-4.508C652.625,311.9,655.076,313.526,655.125,317.293"/>
	<path fill="#0EF3C5" d="M387.699,332.707c-1.814,3.978-7.093,2.429-7.63-2.196c3.453-0.877,6.641,0.665,8.401,3.737"/>
	<path fill="#0EF3C5" d="M251.779,316.409c-1.814,3.978-7.093,2.429-7.63-2.196c3.453-0.877,6.641,0.665,8.401,3.737"/>
</g>
</svg>